<?xml version="1.0" encoding="UTF-8"?>
<svg width="144px" height="144px" viewBox="0 0 144 144" version="1.1" xmlns="http://www.w3.org/2000/svg" xmlns:xlink="http://www.w3.org/1999/xlink">
    <!-- Generator: sketchtool 47.1 (45422) - http://www.bohemiancoding.com/sketch -->
    <title>48E52BB7-2042-44A9-87F8-D0479CC810A5</title>
    <desc>Created with sketchtool.</desc>
    <defs></defs>
    <g id="UI-Toolkit" stroke="none" stroke-width="1" fill="none" fill-rule="evenodd">
        <g id="Logo---Balloon-Only" transform="translate(-116.000000, -63.000000)" fill="#FF7665">
            <path d="M254.850457,108.978171 C258.283829,117.587314 260,126.358971 260,135.293143 C260,144.7236 258.1784,153.7812 254.534171,162.463886 C250.889943,171.146571 245.863829,178.772914 239.450686,185.3424 C233.038057,191.9124 225.417371,197.163257 216.588629,201.098571 C207.759886,205.033371 198.195714,207 187.895086,207 C177.104343,207 167.2928,204.968057 158.464057,200.903143 C149.635314,196.838229 142.067086,191.439257 135.759886,184.707257 C129.452686,177.975771 124.583943,170.285143 121.150571,161.634857 C117.7172,152.984571 116,144.138857 116,135.097714 C116,125.640514 117.821086,116.559771 121.4648,107.853943 C125.109029,99.1465714 130.172171,91.4682857 136.653714,84.816 C143.135257,78.1637143 150.792457,72.8655429 159.6212,68.9194286 C168.449429,64.9738286 178.016171,63 188.316286,63 C199.107029,63 208.864057,65.1039429 217.587371,69.3102857 C226.311714,73.5171429 233.844971,79.0282286 240.186629,85.842 C246.528286,92.6578286 251.416571,100.369543 254.850457,108.978171 Z M204.199486,151.7508 C213.057543,140.317714 233.2916,126.306 226.702571,104.753314 C216.007486,69.7474286 154.112171,69.6044571 148.595943,106.078114 C143.686057,138.540343 170.581143,140.171143 179.047314,164.328686 C184.2488,163.138629 193.436,166.004743 198.242514,161.018229 C200.399943,158.777486 201.836343,154.801029 204.199486,151.7508 Z M195.6104,192.368057 C198.929086,190.616914 196.090743,182.696914 198.917771,180.4536 C195.990971,179.2116 195.616057,170.107714 195.212857,168.370971 C187.19,167.292514 182.383486,168.657429 181.399143,168.370971 C178.864229,170.024914 180.337657,178.860343 177.075543,179.792743 C179.896914,182.267486 176.718114,190.744971 180.389086,192.368057 L195.6104,192.368057 Z M191.637389,174.4974 C193.934703,175.513629 195.877674,176.874943 196.275217,179.793514 L179.723446,179.793514 C180.376074,172.0854 188.864874,177.218486 191.637389,174.4974 Z M192.945217,80.2600457 C213.648303,88.3225029 208.234931,124.307074 200.226989,142.487074 C198.650189,146.063417 196.756074,149.634103 195.594303,153.075703 C194.433046,156.506503 195.248703,160.838331 190.94516,160.858389 C193.683731,135.50616 198.556074,105.417874 191.620417,80.2600457 L192.945217,80.2600457 Z M183.68,80.2600457 C186.915886,82.7548457 183.244914,87.60096 182.3552,91.5157029 C177.437086,113.148617 184.429829,138.384617 184.329543,160.20576 C180.878686,158.58936 180.567029,155.754103 179.047829,151.751417 C174.292743,139.256846 163.880514,120.210274 168.453029,101.440903 C170.535886,92.88936 173.906514,89.2240457 179.723086,83.0726743 C180.163829,83.0726743 183.239257,80.2600457 183.68,80.2600457 Z" id="Youli-Logo-Red-Copy"></path>
        </g>
    </g>
</svg>